# xmcd CD database file
#
# Track frame offsets:
#	150
#	12987
#	31832
#	46007
#	61585
#	74789
#	86229
#	99739
#	115329
#	128210
#	142256
#
# Disc length: 1946 seconds
#
# Revision: 0
# Processed by: cddbd v1.5.2PL0 Copyright (c) Steve Scherf et al.
# Submitted via: CDex 1.51
#
DISCID=9c07980b
DTITLE=Tahiana - Don't complain
DYEAR=2006
DGENRE=Country
TTITLE0=The girl you used to know
TTITLE1=To Jacques
TTITLE2=Let them say it all
TTITLE3=One night queen
TTITLE4=Start life over again
TTITLE5=No
TTITLE6=Never gonna let you down
TTITLE7=Don't complain
TTITLE8=Let the pen try
TTITLE9=Tomorrow I'll be gone
TTITLE10=Teny Malagasy
EXTD=YEAR: 2006
EXTT0=
EXTT1=
EXTT2=
EXTT3=
EXTT4=
EXTT5=
EXTT6=
EXTT7=
EXTT8=
EXTT9=
EXTT10=
PLAYORDER=
